<svg 
 xmlns="http://www.w3.org/2000/svg"
 xmlns:xlink="http://www.w3.org/1999/xlink"
 width="24px" height="20px">
<path fill-rule="evenodd"  fill="rgb(255, 59, 51)"
 d="M23.416,15.548 C23.027,16.443 22.501,17.217 21.837,17.871 C21.174,18.524 20.387,19.043 19.479,19.427 C18.570,19.810 17.616,20.002 16.616,20.002 L15.693,20.002 C15.443,20.002 15.226,19.912 15.044,19.732 C14.861,19.552 14.769,19.339 14.769,19.093 L14.769,17.274 C14.769,17.028 14.861,16.814 15.044,16.634 C15.226,16.455 15.443,16.365 15.693,16.365 L16.616,16.365 C17.635,16.365 18.505,16.009 19.226,15.299 C19.948,14.589 20.308,13.732 20.308,12.727 L20.308,12.273 C20.308,11.894 20.174,11.572 19.905,11.307 C19.635,11.041 19.308,10.909 18.924,10.909 L15.693,10.909 C14.923,10.909 14.269,10.644 13.731,10.113 C13.192,9.583 12.923,8.939 12.923,8.181 L12.923,2.726 C12.923,1.967 13.192,1.323 13.731,0.793 C14.269,0.263 14.923,-0.003 15.692,-0.003 L21.231,-0.003 C22.001,-0.003 22.655,0.263 23.193,0.793 C23.732,1.323 24.001,1.967 24.001,2.726 L24.001,12.727 C24.001,13.712 23.806,14.653 23.416,15.548 ZM8.913,17.871 C8.249,18.524 7.463,19.043 6.555,19.427 C5.646,19.810 4.692,20.002 3.691,20.002 L2.768,20.002 C2.518,20.002 2.302,19.912 2.119,19.732 C1.936,19.552 1.845,19.339 1.845,19.093 L1.845,17.274 C1.845,17.028 1.936,16.814 2.119,16.634 C2.302,16.455 2.518,16.365 2.768,16.365 L3.691,16.365 C4.711,16.365 5.581,16.009 6.302,15.299 C7.023,14.589 7.384,13.732 7.384,12.727 L7.384,12.273 C7.384,11.894 7.249,11.572 6.980,11.307 C6.711,11.041 6.384,10.909 5.999,10.909 L2.768,10.909 C1.999,10.909 1.345,10.644 0.807,10.113 C0.268,9.583 -0.001,8.939 -0.001,8.181 L-0.001,2.726 C-0.001,1.967 0.268,1.323 0.807,0.793 C1.345,0.263 1.999,-0.003 2.768,-0.003 L8.307,-0.003 C9.077,-0.003 9.730,0.263 10.269,0.793 C10.807,1.323 11.076,1.967 11.076,2.726 L11.076,12.727 C11.076,13.712 10.882,14.653 10.492,15.548 C10.103,16.443 9.576,17.217 8.913,17.871 Z"/>
</svg>