<svg 
 xmlns="http://www.w3.org/2000/svg"
 xmlns:xlink="http://www.w3.org/1999/xlink"
 width="95px" height="66px">
<path fill-rule="evenodd"  fill="rgb(255, 59, 51)"
 d="M84.422,64.257 L83.334,66.000 L67.083,66.000 L68.422,61.307 C69.731,56.720 71.807,48.433 71.807,45.720 C71.807,45.058 71.787,44.574 71.760,44.224 C66.106,43.982 60.828,41.650 56.847,37.622 C52.734,33.460 50.469,27.956 50.469,22.123 C50.469,9.924 60.457,-0.000 72.734,-0.000 C85.012,-0.000 95.000,9.924 95.000,22.123 C95.000,47.038 84.854,63.565 84.422,64.257 ZM72.734,7.374 C64.549,7.374 57.891,13.990 57.891,22.123 C57.891,30.098 64.417,36.713 72.440,36.867 L72.602,36.871 C75.857,36.889 77.444,38.550 78.202,39.945 C79.054,41.510 79.228,43.386 79.228,45.720 C79.228,48.662 77.894,54.462 76.827,58.626 L79.078,58.626 C81.485,53.986 87.578,40.433 87.578,22.123 C87.578,13.990 80.919,7.374 72.734,7.374 ZM32.865,66.000 L16.614,66.000 L17.953,61.307 C19.262,56.720 21.338,48.433 21.338,45.720 C21.338,45.058 21.318,44.574 21.291,44.224 C15.637,43.982 10.359,41.650 6.378,37.622 C2.265,33.460 -0.000,27.956 -0.000,22.123 C-0.000,9.924 9.988,-0.000 22.266,-0.000 C34.543,-0.000 44.531,9.924 44.531,22.123 C44.531,47.038 34.385,63.565 33.954,64.257 L32.865,66.000 ZM22.266,7.374 C14.081,7.374 7.422,13.990 7.422,22.123 C7.422,30.098 13.949,36.713 21.971,36.867 L22.133,36.871 C25.388,36.889 26.975,38.550 27.733,39.945 C28.585,41.510 28.760,43.386 28.760,45.720 C28.760,48.662 27.425,54.462 26.359,58.626 L28.609,58.626 C31.017,53.986 37.109,40.433 37.109,22.123 C37.109,13.990 30.450,7.374 22.266,7.374 Z"/>
</svg>