<svg 
 xmlns="http://www.w3.org/2000/svg"
 xmlns:xlink="http://www.w3.org/1999/xlink"
 width="97px" height="97px">
<path fill-rule="evenodd"  fill="rgb(255, 255, 255)"
 d="M94.935,96.997 L2.064,96.997 C0.924,96.997 -0.000,96.073 -0.000,94.933 L-0.000,36.847 L0.001,36.847 L0.001,36.845 C0.001,36.195 0.307,35.583 0.827,35.194 L47.263,0.408 C47.996,-0.142 49.004,-0.142 49.737,0.408 L96.174,35.195 C96.693,35.584 97.000,36.196 96.999,36.845 L96.999,94.933 C96.999,96.073 96.076,96.997 94.935,96.997 ZM48.500,4.639 L5.508,36.845 L19.809,47.559 L19.809,27.921 L77.192,27.921 L77.192,47.559 L91.493,36.847 L48.500,4.639 ZM23.937,32.048 L23.937,50.651 L48.500,69.052 L73.064,50.652 L73.064,32.048 L23.937,32.048 ZM92.872,40.970 L49.737,73.283 C49.371,73.559 48.327,74.028 47.263,73.283 L4.127,40.970 L4.127,92.869 L92.872,92.869 L92.872,40.970 ZM36.695,48.559 L60.691,48.559 L60.691,52.686 L36.695,52.686 L36.695,48.559 ZM36.695,39.283 L60.691,39.283 L60.691,43.412 L36.695,43.412 L36.695,39.283 Z"/>
</svg>