<svg xmlns="http://www.w3.org/2000/svg" width="41" height="41" viewBox="0 0 41 41">
  <defs>
    <style>
      .cls-1 {
        fill: #ff3b33;
        fill-rule: evenodd;
      }
    </style>
  </defs>
  <path id="Icon" class="cls-1" d="M591.592,1266.09l-0.945-.42c-0.037-.13-0.077-0.26-0.119-0.38l0.526-.91a0.671,0.671,0,0,0,0-.67,7.513,7.513,0,0,0-.984-1.38,0.709,0.709,0,0,0-.662-0.21l-0.994.23c-0.1-.08-0.2-0.15-0.3-0.22l-0.1-1.06a0.671,0.671,0,0,0-.394-0.55,6.872,6.872,0,0,0-1.587-.53,0.66,0.66,0,0,0-.658.22l-0.7.8h-0.334l-0.7-.8a0.661,0.661,0,0,0-.659-0.22,6.888,6.888,0,0,0-1.587.53,0.673,0.673,0,0,0-.394.55l-0.1,1.06c-0.1.07-.2,0.14-0.3,0.22l-0.993-.23a0.708,0.708,0,0,0-.662.21,7.419,7.419,0,0,0-.984,1.38,0.671,0.671,0,0,0,0,.67l0.526,0.91c-0.043.12-.083,0.25-0.12,0.38l-0.945.42a0.678,0.678,0,0,0-.408.62v1.55a0.678,0.678,0,0,0,.408.62l0.945,0.42c0.037,0.13.077,0.26,0.12,0.38l-0.527.91a0.671,0.671,0,0,0,0,.67,7.821,7.821,0,0,0,.985,1.38,0.679,0.679,0,0,0,.662.2l0.993-.22c0.1,0.08.2,0.15,0.3,0.22l0.1,1.05a0.674,0.674,0,0,0,.394.56,6.872,6.872,0,0,0,1.587.53,0.68,0.68,0,0,0,.658-0.22l0.7-.81h0.334l0.7,0.81a0.687,0.687,0,0,0,.518.24,0.666,0.666,0,0,0,.14-0.02,6.872,6.872,0,0,0,1.587-.53,0.672,0.672,0,0,0,.394-0.56l0.1-1.05c0.1-.07.2-0.14,0.3-0.22l0.994,0.22a0.68,0.68,0,0,0,.662-0.2,7.868,7.868,0,0,0,.984-1.38,0.671,0.671,0,0,0,0-.67l-0.527-.91c0.043-.12.083-0.25,0.12-0.38l0.945-.42a0.678,0.678,0,0,0,.408-0.62v-1.55A0.678,0.678,0,0,0,591.592,1266.09Zm-1.8,2.09a0.7,0.7,0,0,0-.39.48,5.263,5.263,0,0,1-.258.82,0.67,0.67,0,0,0,.04.6l0.487,0.84c-0.11.17-.229,0.34-0.357,0.5l-0.916-.21a0.672,0.672,0,0,0-.605.16,5.857,5.857,0,0,1-.682.5,0.669,0.669,0,0,0-.322.52l-0.089.97a4.009,4.009,0,0,1-.552.19l-0.627-.73a0.68,0.68,0,0,0-.518-0.23h-0.961a0.68,0.68,0,0,0-.518.23l-0.626.73a3.964,3.964,0,0,1-.552-0.19l-0.089-.97a0.671,0.671,0,0,0-.322-0.52,5.857,5.857,0,0,1-.682-0.5,0.674,0.674,0,0,0-.606-0.16l-0.916.21c-0.127-.16-0.246-0.33-0.357-0.5l0.487-.84a0.674,0.674,0,0,0,.041-0.6,5.058,5.058,0,0,1-.258-0.82,0.7,0.7,0,0,0-.391-0.48l-0.842-.37v-0.65l0.842-.38a0.665,0.665,0,0,0,.391-0.47,4.855,4.855,0,0,1,.258-0.82,0.7,0.7,0,0,0-.041-0.61l-0.486-.84c0.11-.17.229-0.33,0.356-0.49l0.917,0.21a0.7,0.7,0,0,0,.6-0.16,5.785,5.785,0,0,1,.683-0.5,0.688,0.688,0,0,0,.322-0.52l0.089-.98c0.183-.07.368-0.13,0.551-0.18l0.627,0.72a0.689,0.689,0,0,0,.518.24H585a0.689,0.689,0,0,0,.518-0.24l0.627-.72q0.276,0.075.552,0.18l0.089,0.98a0.685,0.685,0,0,0,.322.52,5.857,5.857,0,0,1,.682.5,0.7,0.7,0,0,0,.605.16l0.916-.21a6,6,0,0,1,.357.49l-0.487.84a0.694,0.694,0,0,0-.04.61,4.947,4.947,0,0,1,.258.82,0.661,0.661,0,0,0,.39.47l0.843,0.38v0.65Zm-5.269-4.11a3.415,3.415,0,1,0,3.42,3.41A3.417,3.417,0,0,0,584.52,1264.07Zm0,5.46a2.05,2.05,0,1,1,2.052-2.05A2.046,2.046,0,0,1,584.52,1269.53Zm-14.365-32.78a10.245,10.245,0,1,0,10.26,10.24A10.253,10.253,0,0,0,570.155,1236.75Zm-8.523,12.77a8.879,8.879,0,0,1,5.985-11.04,9.071,9.071,0,0,1,2.538-.36,8.709,8.709,0,0,1,2.535.37c-0.167.11-.341,0.21-0.5,0.33a0.684,0.684,0,0,0-.239.76l0.314,0.95c-0.129.12-.255,0.25-0.377,0.38l-0.955-.31a0.688,0.688,0,0,0-.759.23,10.517,10.517,0,0,0-1.258,2.15,0.684,0.684,0,0,0,.173.78l0.76,0.68q-0.078.255-.139,0.51l-0.991.21a0.691,0.691,0,0,0-.543.67v2.33a0.691,0.691,0,0,0,.543.67l0.991,0.21q0.061,0.255.139,0.51l-0.76.68a0.672,0.672,0,0,0-.173.77,10.042,10.042,0,0,0,1.256,2.15,0.678,0.678,0,0,0,.76.24l0.956-.31c0.122,0.13.248,0.25,0.377,0.37l-0.314.96a0.686,0.686,0,0,0,.238.76c0.154,0.11.329,0.22,0.5,0.33A8.894,8.894,0,0,1,561.632,1249.52Zm12.645,5.33a9.262,9.262,0,0,1-.863-0.49l0.295-.9a0.689,0.689,0,0,0-.207-0.74,8.088,8.088,0,0,1-.876-0.87,0.685,0.685,0,0,0-.736-0.21l-0.9.3a8.674,8.674,0,0,1-.6-1.03l0.717-.64a0.685,0.685,0,0,0,.188-0.74,7.538,7.538,0,0,1-.321-1.19,0.683,0.683,0,0,0-.533-0.55l-0.885-.19v-1.22l0.885-.18a0.7,0.7,0,0,0,.533-0.55,7.538,7.538,0,0,1,.321-1.19,0.685,0.685,0,0,0-.188-0.74l-0.717-.64a8.674,8.674,0,0,1,.6-1.03l0.9,0.3a0.7,0.7,0,0,0,.736-0.21,6.658,6.658,0,0,1,.875-0.87,0.694,0.694,0,0,0,.207-0.74l-0.3-.9a9.623,9.623,0,0,1,.863-0.5,9.036,9.036,0,0,1,2.482,1.94,6.132,6.132,0,0,0,0,11.85A8.8,8.8,0,0,1,574.277,1254.85Zm-0.653-8.54a4.775,4.775,0,0,1,4.048-4.04,8.8,8.8,0,0,1,0,9.45A4.781,4.781,0,0,1,573.624,1246.31Zm14.552-.64-0.821-.36c-0.028-.1-0.057-0.19-0.089-0.29l0.457-.78a0.692,0.692,0,0,0,.006-0.68,6.883,6.883,0,0,0-.894-1.25,0.71,0.71,0,0,0-.663-0.21l-0.862.2c-0.073-.06-0.147-0.11-0.223-0.17l-0.084-.91a0.687,0.687,0,0,0-.393-0.56,6.674,6.674,0,0,0-1.442-.48,0.7,0.7,0,0,0-.644.2l-0.755.82a12.98,12.98,0,0,0-23.258,11.53c0.19,0.38.4,0.75,0.627,1.12l-1.83,2.28a0.678,0.678,0,0,0-.143.52,0.688,0.688,0,0,0,.275.46l1.486,1.08-7.771,9.55a0.681,0.681,0,0,0,.1.96h0l3.42,2.73a0.68,0.68,0,0,0,.958-0.1l7.944-9.76,1.384,1a0.683,0.683,0,0,0,.936-0.12l2.135-2.67a12.848,12.848,0,0,0,13.736-7l0.748,0.82a0.692,0.692,0,0,0,.507.22,0.656,0.656,0,0,0,.14-0.01,7.254,7.254,0,0,0,1.443-.48,0.7,0.7,0,0,0,.393-0.56l0.084-.92c0.076-.05.15-0.11,0.222-0.16l0.863,0.2a0.71,0.71,0,0,0,.663-0.21,7.648,7.648,0,0,0,.893-1.25,0.69,0.69,0,0,0,0-.68l-0.457-.79c0.032-.09.061-0.19,0.089-0.28l0.821-.37a0.678,0.678,0,0,0,.408-0.62v-1.39A0.692,0.692,0,0,0,588.176,1245.67ZM555,1269.94l-2.352-1.88,7.382-9.07,2.439,1.77Zm10.237-8.86-1.38-1-0.078-.05-4.959-3.61,1.132-1.41a13.039,13.039,0,0,0,6.592,4.44Zm4.914-2.48a11.61,11.61,0,1,1,11.629-11.61A11.614,11.614,0,0,1,570.155,1258.6Zm17.061-11.36-0.717.32a0.685,0.685,0,0,0-.391.47,4.752,4.752,0,0,1-.228.74,0.672,0.672,0,0,0,.04.6l0.417,0.72c-0.084.12-.173,0.25-0.268,0.37l-0.782-.18a0.673,0.673,0,0,0-.605.16,4.744,4.744,0,0,1-.607.44,0.706,0.706,0,0,0-.32.52l-0.077.84c-0.14.05-.28,0.1-0.42,0.14l-0.893-.98a12.719,12.719,0,0,0,0-8.82l0.9-.97c0.14,0.04.282,0.09,0.422,0.14l0.077,0.84a0.672,0.672,0,0,0,.321.51,6.139,6.139,0,0,1,.606.45,0.668,0.668,0,0,0,.605.15l0.782-.17c0.1,0.12.184,0.24,0.268,0.37l-0.417.72a0.672,0.672,0,0,0-.04.6,4.637,4.637,0,0,1,.228.73,0.7,0.7,0,0,0,.391.48l0.717,0.31v0.5h0Z" transform="translate(-551 -1234)"/>
</svg>
